<svg width="24" height="24" viewBox="0 0 24 24" fill="none" xmlns="http://www.w3.org/2000/svg">
<path d="M8.3535 1.86975C7.72875 2.93025 2.25 12.33 2.25 15.75C2.25 17.5402 2.96116 19.2571 4.22703 20.523C5.4929 21.7888 7.20979 22.5 9 22.5C10.7902 22.5 12.5071 21.7888 13.773 20.523C15.0388 19.2571 15.75 17.5402 15.75 15.75C15.75 12.33 10.275 2.93025 9.6465 1.86975C9.57508 1.76395 9.47879 1.67729 9.36607 1.61738C9.25335 1.55747 9.12765 1.52614 9 1.52614C8.87235 1.52614 8.74665 1.55747 8.63393 1.61738C8.52121 1.67729 8.42492 1.76395 8.3535 1.86975ZM9 21C7.6081 20.9984 6.27367 20.4448 5.28944 19.4606C4.30522 18.4763 3.75159 17.1419 3.75 15.75C3.75 13.488 7.09875 7.10775 9 3.75C10.9012 7.10625 14.25 13.4865 14.25 15.75C14.2484 17.1419 13.6948 18.4763 12.7106 19.4606C11.7263 20.4448 10.3919 20.9984 9 21ZM9 17.625C9.59674 17.625 10.169 17.3879 10.591 16.966C11.0129 16.544 11.25 15.9717 11.25 15.375C11.25 15.1761 11.329 14.9853 11.4697 14.8447C11.6103 14.704 11.8011 14.625 12 14.625C12.1989 14.625 12.3897 14.704 12.5303 14.8447C12.671 14.9853 12.75 15.1761 12.75 15.375C12.7488 16.3692 12.3533 17.3223 11.6503 18.0253C10.9473 18.7283 9.9942 19.1238 9 19.125C8.80109 19.125 8.61032 19.046 8.46967 18.9053C8.32902 18.7647 8.25 18.5739 8.25 18.375C8.25 18.1761 8.32902 17.9853 8.46967 17.8447C8.61032 17.704 8.80109 17.625 9 17.625ZM21.75 4.875C21.75 5.07391 21.671 5.26468 21.5303 5.40533C21.3897 5.54598 21.1989 5.625 21 5.625H19.125V7.5C19.125 7.69891 19.046 7.88968 18.9053 8.03033C18.7647 8.17098 18.5739 8.25 18.375 8.25C18.1761 8.25 17.9853 8.17098 17.8447 8.03033C17.704 7.88968 17.625 7.69891 17.625 7.5V5.625H15.75C15.5511 5.625 15.3603 5.54598 15.2197 5.40533C15.079 5.26468 15 5.07391 15 4.875C15 4.67609 15.079 4.48532 15.2197 4.34467C15.3603 4.20402 15.5511 4.125 15.75 4.125H17.625V2.25C17.625 2.05109 17.704 1.86032 17.8447 1.71967C17.9853 1.57902 18.1761 1.5 18.375 1.5C18.5739 1.5 18.7647 1.57902 18.9053 1.71967C19.046 1.86032 19.125 2.05109 19.125 2.25V4.125H21C21.1989 4.125 21.3897 4.20402 21.5303 4.34467C21.671 4.48532 21.75 4.67609 21.75 4.875Z" fill="#3E4095"/>
</svg>
