<svg width="16" height="16" viewBox="0 0 16 16" fill="none" xmlns="http://www.w3.org/2000/svg">
<path d="M6.90023 5.76953C6.57764 5.76953 6.31689 6.02742 6.31689 6.34645V10.9618C6.31689 11.2809 6.57764 11.5388 6.90023 11.5388C7.22281 11.5388 7.48356 11.2809 7.48356 10.9618V6.34645C7.48356 6.02742 7.22281 5.76953 6.90023 5.76953Z" fill="white"/>
<path d="M9.23372 5.76953C8.91114 5.76953 8.65039 6.02742 8.65039 6.34645V10.9618C8.65039 11.2809 8.91114 11.5388 9.23372 11.5388C9.55631 11.5388 9.81706 11.2809 9.81706 10.9618V6.34645C9.81706 6.02742 9.55631 5.76953 9.23372 5.76953Z" fill="white"/>
<path d="M9.81689 0H6.31689C5.67348 0 5.15023 0.5175 5.15023 1.15385V2.30769H3.40023H1.65023C1.32764 2.30769 1.06689 2.56558 1.06689 2.88462C1.06689 3.20365 1.32764 3.46154 1.65023 3.46154H2.81689V13.2692C2.81689 14.2235 3.60206 15 4.56689 15H11.5669C12.5317 15 13.3169 14.2235 13.3169 13.2692V3.46154H14.4836C14.8061 3.46154 15.0669 3.20365 15.0669 2.88462C15.0669 2.56558 14.8061 2.30769 14.4836 2.30769H12.7336H10.9836V1.15385C10.9836 0.5175 10.4603 0 9.81689 0ZM12.1502 13.2692C12.1502 13.5877 11.8889 13.8462 11.5669 13.8462H4.56689C4.24489 13.8462 3.98356 13.5877 3.98356 13.2692V3.46154H12.1502V13.2692ZM6.31689 2.30769V1.15385H9.81689V2.30769H6.31689Z" fill="white"/>
</svg>
