<svg width="24" height="24" viewBox="0 0 24 24" fill="none" xmlns="http://www.w3.org/2000/svg">
<g clip-path="url(#clip0_712_730)">
<path d="M12 0C5.37248 0 0 5.37267 0 12C0 18.6277 5.37248 24 12 24C18.6275 24 24 18.6277 24 12C24 5.37267 18.6275 0 12 0ZM12 6C12.8285 6 13.5 6.67163 13.5 7.5C13.5 8.32875 12.8285 9 12 9C11.1715 9 10.5 8.32875 10.5 7.5C10.5 6.67163 11.1715 6 12 6ZM14.25 18H9.75C9.33581 18 9 17.6646 9 17.25C9 16.8358 9.33581 16.5 9.75 16.5H10.5V12H9.75C9.33581 12 9 11.6646 9 11.25C9 10.8358 9.33581 10.5 9.75 10.5H12.75C13.1642 10.5 13.5 10.8358 13.5 11.25V16.5H14.25C14.6642 16.5 15 16.8358 15 17.25C15 17.6646 14.6642 18 14.25 18Z" fill="#FC8415"/>
</g>
<defs>
<clipPath id="clip0_712_730">
<rect width="24" height="24" fill="white"/>
</clipPath>
</defs>
</svg>
