<svg width="24" height="24" viewBox="0 0 24 24" fill="none" xmlns="http://www.w3.org/2000/svg">
<g clip-path="url(#clip0_1_21)">
<path d="M13.5 4.18C13.3674 4.18 13.2402 4.12732 13.1464 4.03355C13.0527 3.93979 13 3.81261 13 3.68V2C13 1.449 12.551 1 12 1C11.449 1 11 1.449 11 2V3.68C11 3.81261 10.9473 3.93979 10.8536 4.03355C10.7598 4.12732 10.6326 4.18 10.5 4.18C10.3674 4.18 10.2402 4.12732 10.1464 4.03355C10.0527 3.93979 10 3.81261 10 3.68V2C10 0.897 10.897 0 12 0C13.103 0 14 0.897 14 2V3.68C14 3.81261 13.9473 3.93979 13.8536 4.03355C13.7598 4.12732 13.6326 4.18 13.5 4.18ZM12 24C10.07 24 8.5 22.43 8.5 20.5C8.5 20.3674 8.55268 20.2402 8.64645 20.1464C8.74021 20.0527 8.86739 20 9 20C9.13261 20 9.25979 20.0527 9.35355 20.1464C9.44732 20.2402 9.5 20.3674 9.5 20.5C9.5 21.878 10.622 23 12 23C13.378 23 14.5 21.878 14.5 20.5C14.5 20.3674 14.5527 20.2402 14.6464 20.1464C14.7402 20.0527 14.8674 20 15 20C15.1326 20 15.2598 20.0527 15.3536 20.1464C15.4473 20.2402 15.5 20.3674 15.5 20.5C15.5 22.43 13.93 24 12 24Z" fill="black"/>
<path d="M20.5 21H3.50001C3.19388 20.9989 2.89538 20.9043 2.64451 20.7289C2.39363 20.5535 2.20236 20.3055 2.0963 20.0184C1.99024 19.7312 1.97447 19.4185 2.05109 19.1221C2.1277 18.8257 2.29306 18.5598 2.52501 18.36C3.30068 17.7071 3.92414 16.8924 4.35169 15.973C4.77924 15.0536 5.00051 14.0519 5.00001 13.038V10C5.00001 6.14 8.14001 3 12 3C15.86 3 19 6.14 19 10V13.038C19 15.091 19.899 17.028 21.467 18.353C21.7016 18.5515 21.8697 18.8172 21.9485 19.1143C22.0273 19.4113 22.013 19.7254 21.9075 20.0141C21.802 20.3027 21.6105 20.5521 21.3588 20.7284C21.1071 20.9047 20.8073 20.9995 20.5 21ZM12 4C8.69101 4 6.00001 6.691 6.00001 10V13.038C6.00111 14.1956 5.74921 15.3395 5.26192 16.3895C4.77463 17.4396 4.06374 18.3705 3.17901 19.117C3.10044 19.1829 3.04405 19.2714 3.01748 19.3705C2.99092 19.4696 2.99547 19.5744 3.03051 19.6708C3.06556 19.7672 3.1294 19.8505 3.21339 19.9094C3.29737 19.9683 3.39744 19.9999 3.50001 20H20.5C20.6022 20 20.702 19.9687 20.7859 19.9103C20.8697 19.8518 20.9337 19.7691 20.9691 19.6732C21.0045 19.5773 21.0097 19.4729 20.9839 19.374C20.9581 19.2751 20.9027 19.1864 20.825 19.12C19.9395 18.3733 19.2278 17.442 18.7398 16.3914C18.2519 15.3409 17.9994 14.1964 18 13.038V10C18 6.691 15.309 4 12 4Z" fill="black"/>
</g>
<defs>
<clipPath id="clip0_1_21">
<rect width="24" height="24" fill="white"/>
</clipPath>
</defs>
</svg>
